<svg xmlns="http://www.w3.org/2000/svg" viewBox="0 0 500 340" role="img"><defs><radialGradient id="sky"><stop stop-color="#4b5550"/><stop offset="1" stop-color="#182231"/></radialGradient><linearGradient id="earth" x2="0" y2="1"><stop stop-color="#4b5550"/><stop offset="1" stop-color="#221f2d"/></linearGradient><filter id="glow"><feGaussianBlur stdDeviation="6"/></filter></defs><rect width="500" height="340" fill="url(#sky)"/><circle cx="402" cy="68" r="35" fill="#e6e2d5" opacity=".65"/><path d="M0 264 74 208l52 31 82-65 105 77 79-54 108 65v78H0" fill="#36343e"/><path d="M0 290q130-35 255 0t245-5v55H0" fill="url(#earth)"/><ellipse cx="250" cy="280" rx="115" ry="17" fill="#899681" opacity=".45" filter="url(#glow)"/><g fill="#899681" stroke="#292530" stroke-width="8" stroke-linecap="round" stroke-linejoin="round"><path d="M218 101q34-26 67 2l5 48-19 20 57 23 32 79H143l27-81 62-21-20-19z"/><path d="m173 190-58 55-13 30m226-81 45 30 22 51" fill="none" stroke-width="22"/><path d="M217 127h17m34-2h19" fill="none" stroke="#e3d59b" stroke-width="10"/><path d="m171 198 41 23 24-28m36-4 31 32 25-24" fill="none" stroke="#c4b19b" stroke-width="10"/><path d="m247 211 5 62m-38-29 83-6" fill="none" stroke="#596257" stroke-width="10"/><path d="M203 86q43-37 91 0" fill="none" stroke="#a2a499" stroke-width="7"/></g><path d="M0 313q145-24 251 0t249-8" fill="none" stroke="#c9b4a1" opacity=".25" stroke-width="3"/></svg>