<svg xmlns="http://www.w3.org/2000/svg" viewBox="0 0 500 340" role="img"><defs><radialGradient id="sky"><stop stop-color="#504236"/><stop offset="1" stop-color="#182231"/></radialGradient><linearGradient id="earth" x2="0" y2="1"><stop stop-color="#504236"/><stop offset="1" stop-color="#221f2d"/></linearGradient><filter id="glow"><feGaussianBlur stdDeviation="6"/></filter></defs><rect width="500" height="340" fill="url(#sky)"/><circle cx="402" cy="68" r="35" fill="#e6e2d5" opacity=".65"/><path d="M0 264 74 208l52 31 82-65 105 77 79-54 108 65v78H0" fill="#36343e"/><path d="M0 290q130-35 255 0t245-5v55H0" fill="url(#earth)"/><ellipse cx="250" cy="280" rx="115" ry="17" fill="#9c755d" opacity=".45" filter="url(#glow)"/><g fill="#9c755d" stroke="#292530" stroke-width="8" stroke-linecap="round" stroke-linejoin="round"><path d="M191 188q-38-48-96-76m102 72q-68-17-117 0m117 9q-68 21-95 69m208-74q38-48 96-76m-102 72q68-17 117 0m-117 9q68 21 95 69" fill="none" stroke-width="13"/><path d="M172 183q0-46 69-48 72 0 90 49-23 48-78 55-57 0-81-56z"/><ellipse cx="251" cy="202" rx="54" ry="37" fill="#664838"/><path d="M221 158q28-27 58 0" fill="none" stroke="#d2a27b" stroke-width="9"/><circle cx="224" cy="181" r="8" fill="#e9664e"/><circle cx="276" cy="181" r="8" fill="#e9664e"/></g><path d="M0 313q145-24 251 0t249-8" fill="none" stroke="#c9b4a1" opacity=".25" stroke-width="3"/></svg>