<svg xmlns="http://www.w3.org/2000/svg" viewBox="0 0 500 340" role="img"><defs><radialGradient id="sky"><stop stop-color="#4a5559"/><stop offset="1" stop-color="#182231"/></radialGradient><linearGradient id="earth" x2="0" y2="1"><stop stop-color="#4a5559"/><stop offset="1" stop-color="#221f2d"/></linearGradient><filter id="glow"><feGaussianBlur stdDeviation="6"/></filter></defs><rect width="500" height="340" fill="url(#sky)"/><circle cx="402" cy="68" r="35" fill="#e6e2d5" opacity=".65"/><path d="M0 264 74 208l52 31 82-65 105 77 79-54 108 65v78H0" fill="#36343e"/><path d="M0 290q130-35 255 0t245-5v55H0" fill="url(#earth)"/><ellipse cx="250" cy="280" rx="115" ry="17" fill="#829482" opacity=".45" filter="url(#glow)"/><g fill="#829482" stroke="#292530" stroke-width="8" stroke-linecap="round" stroke-linejoin="round"><path d="M210 95q37-31 72 0l7 48-22 25 54 23 34 84H147l36-85 50-22-25-26z"/><path d="m184 192-57 40-21 42m215-83 56 47 18 36" fill="none" stroke-width="24"/><path d="M217 119h18m34 0h18" fill="none" stroke="#dce0a4" stroke-width="11"/><path d="m186 193 47 33 52-36m-49 35-12 49" fill="none" stroke="#bd7667" stroke-width="9"/><path d="M162 275h176" fill="none" stroke="#35454c" stroke-width="8"/></g><path d="M0 313q145-24 251 0t249-8" fill="none" stroke="#c9b4a1" opacity=".25" stroke-width="3"/></svg>