<svg xmlns="http://www.w3.org/2000/svg" viewBox="0 0 960 540" role="img" aria-label="bell tower and windmill"><defs><linearGradient id="sky" x2="0" y2="1"><stop stop-color="#413b57"/><stop offset="1" stop-color="#e4774c"/></linearGradient><linearGradient id="ground" x2="0" y2="1"><stop stop-color="#e4774c"/><stop offset="1" stop-color="#171821"/></linearGradient><radialGradient id="glow"><stop stop-color="#dca96c" stop-opacity=".75"/><stop offset="1" stop-color="#dca96c" stop-opacity="0"/></radialGradient></defs><rect width="960" height="540" fill="url(#sky)"/><circle cx="744" cy="126" r="91" fill="url(#glow)"/><circle cx="744" cy="126" r="35" fill="#dca96c" opacity=".8"/><path d="M0 335 Q180 260 330 340T650 315T960 345V540H0Z" fill="url(#ground)"/><path d="M0 425 Q210 375 420 436T960 411V540H0Z" fill="#171821" opacity=".65"/><circle cx="82" cy="80" r="2" fill="#f4dfb6" opacity=".7"/><circle cx="284" cy="103" r="2" fill="#f4dfb6" opacity=".7"/><circle cx="444" cy="60" r="3" fill="#f4dfb6" opacity=".7"/><circle cx="531" cy="122" r="2" fill="#f4dfb6" opacity=".7"/><circle cx="868" cy="65" r="2" fill="#f4dfb6" opacity=".7"/><circle cx="344" cy="134" r="2" fill="#f4dfb6" opacity=".7"/><circle cx="675" cy="47" r="2" fill="#f4dfb6" opacity=".7"/><g fill="#292633" stroke="#b09b78" stroke-width="8"><rect x="98" y="230" width="36" height="175"/><circle cx="116" cy="215" r="18"/><path d="M116 215L65 74M116 215L221 111M116 215L67 344M116 215L228 314" stroke-width="12"/><path d="M367 373V244h132v129M350 246l82-77 84 77M404 235v-76h60v76" fill="#332c38"/><path d="M407 172v-33h18v33m31 0v-33h18v33" fill="#d1ad70"/></g><text x="38" y="492" fill="#f0d8ae" font-family="Georgia,serif" font-size="23" letter-spacing="5" opacity=".84">PUEBLO DAS CAMPANAS</text></svg>