<svg xmlns="http://www.w3.org/2000/svg" viewBox="0 0 960 540" role="img" aria-label="abandoned locomotive on haunted rails"><defs><linearGradient id="sky" x2="0" y2="1"><stop stop-color="#2b303e"/><stop offset="1" stop-color="#75594f"/></linearGradient><linearGradient id="ground" x2="0" y2="1"><stop stop-color="#75594f"/><stop offset="1" stop-color="#171821"/></linearGradient><radialGradient id="glow"><stop stop-color="#d9a56a" stop-opacity=".75"/><stop offset="1" stop-color="#d9a56a" stop-opacity="0"/></radialGradient></defs><rect width="960" height="540" fill="url(#sky)"/><circle cx="744" cy="126" r="91" fill="url(#glow)"/><circle cx="744" cy="126" r="35" fill="#d9a56a" opacity=".8"/><path d="M0 335 Q180 260 330 340T650 315T960 345V540H0Z" fill="url(#ground)"/><path d="M0 425 Q210 375 420 436T960 411V540H0Z" fill="#171821" opacity=".65"/><circle cx="82" cy="80" r="2" fill="#f4dfb6" opacity=".7"/><circle cx="284" cy="103" r="2" fill="#f4dfb6" opacity=".7"/><circle cx="444" cy="60" r="3" fill="#f4dfb6" opacity=".7"/><circle cx="531" cy="122" r="2" fill="#f4dfb6" opacity=".7"/><circle cx="868" cy="65" r="2" fill="#f4dfb6" opacity=".7"/><circle cx="344" cy="134" r="2" fill="#f4dfb6" opacity=".7"/><circle cx="675" cy="47" r="2" fill="#f4dfb6" opacity=".7"/><g fill="#382f33" stroke="#b0835c" stroke-width="7"><path d="M65 326h830v19H65zM65 361h830v19H65z"/><path d="M173 270h280v112H173zM458 294h206v88H458zM664 311h118v71H664z" fill="#51454b"/><circle cx="256" cy="390" r="29"/><circle cx="390" cy="390" r="29"/><circle cx="530" cy="390" r="24"/><path d="M235 268v-89h60v89m22-90h83l43 90H300"/><path d="M257 179v-35h34v35" fill="#d29c62"/></g><text x="38" y="492" fill="#f0d8ae" font-family="Georgia,serif" font-size="23" letter-spacing="5" opacity=".84">FERROVIA DOS CONDENADOS</text></svg>