<svg xmlns="http://www.w3.org/2000/svg" viewBox="0 0 960 540" role="img" aria-label="reeds and still water"><defs><linearGradient id="sky" x2="0" y2="1"><stop stop-color="#213c49"/><stop offset="1" stop-color="#548c77"/></linearGradient><linearGradient id="ground" x2="0" y2="1"><stop stop-color="#548c77"/><stop offset="1" stop-color="#171821"/></linearGradient><radialGradient id="glow"><stop stop-color="#94b990" stop-opacity=".75"/><stop offset="1" stop-color="#94b990" stop-opacity="0"/></radialGradient></defs><rect width="960" height="540" fill="url(#sky)"/><circle cx="744" cy="126" r="91" fill="url(#glow)"/><circle cx="744" cy="126" r="35" fill="#94b990" opacity=".8"/><path d="M0 335 Q180 260 330 340T650 315T960 345V540H0Z" fill="url(#ground)"/><path d="M0 425 Q210 375 420 436T960 411V540H0Z" fill="#171821" opacity=".65"/><circle cx="82" cy="80" r="2" fill="#f4dfb6" opacity=".7"/><circle cx="284" cy="103" r="2" fill="#f4dfb6" opacity=".7"/><circle cx="444" cy="60" r="3" fill="#f4dfb6" opacity=".7"/><circle cx="531" cy="122" r="2" fill="#f4dfb6" opacity=".7"/><circle cx="868" cy="65" r="2" fill="#f4dfb6" opacity=".7"/><circle cx="344" cy="134" r="2" fill="#f4dfb6" opacity=".7"/><circle cx="675" cy="47" r="2" fill="#f4dfb6" opacity=".7"/><g fill="none" stroke="#b6b58c" stroke-width="8"><path d="M74 445Q91 317 72 211m26 234q58-129 54-247m64 244q-8-110 13-197m78 204q31-140 8-268m85 265q-24-136 11-232m95 229q-6-104 30-194m73 192q30-113 7-229"/><path d="M60 237l28-29 26 31m61-25 29-31 29 32m122-67 25-30 26 31m227 81 24-28 26 32" fill="#6da389"/></g><path d="M0 431q145-26 282 4t277-1 401-5v111H0Z" fill="#31575a" opacity=".75"/><text x="38" y="492" fill="#f0d8ae" font-family="Georgia,serif" font-size="23" letter-spacing="5" opacity=".84">PÂNTANO DE VIDRO</text></svg>